<svg width="20" height="20" viewBox="0 0 20 20" fill="none" xmlns="http://www.w3.org/2000/svg">
<path d="M14.9935 12.0362C14.6116 12.0362 14.2416 12.0906 13.8923 12.1912L10.6448 5.07312H13.6029C15.3498 5.07312 16.7654 3.6575 16.7654 1.91062V0H13.0604C11.3135 0 9.89789 1.41562 9.89789 3.1625V3.70438C9.89789 2.45312 8.88352 1.43875 7.63227 1.43875H4.81164V2.8075C4.81164 4.05875 5.82602 5.07312 7.07727 5.07312H9.35602L6.10977 12.1912C5.78039 12.0931 5.40227 12.0362 5.01102 12.0362C5.00977 12.0362 5.00914 12.0362 5.00789 12.0362C2.81164 12.0362 1.02539 13.8225 1.02539 16.0181C1.02539 18.2137 2.81164 20 5.00727 20C7.20289 20 8.98914 18.2137 8.98914 16.0181C8.98914 14.6213 8.26602 13.39 7.17414 12.6787L9.99977 6.48438L12.8254 12.6787C11.7266 13.3994 11.011 14.625 11.0104 16.0175C11.0104 18.2125 12.7966 19.9994 14.9923 19.9994C17.1879 19.9994 18.9741 18.2131 18.9741 16.0175C18.9741 13.8219 17.1879 12.0356 14.9923 12.0356L14.9935 12.0362Z" fill="#4A4E62"/>
</svg>
